Output #0, mpeg, to '02.mpg':
    Stream #0:0: Video: mpeg1video, yuv420p, 640x480, q=2-31, 400 kb/s, 25 tbn
[mpeg @ 0x557e6c7b50] VBV buffer size not set, using default size of 230KB
If you want the mpeg file to be compliant to some specification
Like DVD, VCD or others, make sure you set the correct buffer size
视频编码
pts:0 pts_time:0 dts:-3600 dts_time:-0.04 duration:0 duration_time:0 stream_index:0
pts:3600 pts_time:0.04 dts:0 dts_time:0 duration:0 duration_time:0 stream_index:0
pts:7200 pts_time:0.08 dts:3600 dts_time:0.04 duration:0 duration_time:0 stream_index:0
pts:10800 pts_time:0.12 dts:7200 dts_time:0.08 duration:0 duration_time:0 stream_index:0
pts:14400 pts_time:0.16 dts:10800 dts_time:0.12 duration:0 duration_time:0 stream_index:0
pts:18000 pts_time:0.2 dts:14400 dts_time:0.16 duration:0 duration_time:0 stream_index:0
pts:21600 pts_time:0.24 dts:18000 dts_time:0.2 duration:0 duration_time:0 stream_index:0
pts:25200 pts_time:0.28 dts:21600 dts_time:0.24 duration:0 duration_time:0 stream_index:0
pts:28800 pts_time:0.32 dts:25200 dts_time:0.28 duration:0 duration_time:0 stream_index:0
pts:32400 pts_time:0.36 dts:28800 dts_time:0.32 duration:0 duration_time:0 stream_index:0
pts:36000 pts_time:0.4 dts:32400 dts_time:0.36 duration:0 duration_time:0 stream_index:0
[mpeg @ 0x557e6c7b50] buffer underflow st=0 bufi=5161 size=6497
pts:39600 pts_time:0.44 dts:36000 dts_time:0.4 duration:0 duration_time:0 stream_index:0
[mpeg @ 0x557e6c7b50] buffer underflow st=0 bufi=696 size=10326
[mpeg @ 0x557e6c7b50] buffer underflow st=0 bufi=2737 size=10326
[mpeg @ 0x557e6c7b50] buffer underflow st=0 bufi=4778 size=10326
[mpeg @ 0x557e6c7b50] buffer underflow st=0 bufi=6819 size=10326
[mpeg @ 0x557e6c7b50] buffer underflow st=0 bufi=8860 size=10326
pts:43200 pts_time:0.48 dts:39600 dts_time:0.44 duration:0 duration_time:0 stream_index:0
[mpeg @ 0x557e6c7b50] buffer underflow st=0 bufi=566 size=685
pts:46800 pts_time:0.52 dts:43200 dts_time:0.48 duration:0 duration_time:0 stream_index:0
[mpeg @ 0x557e6c7b50] buffer underflow st=0 bufi=1913 size=2319
pts:50400 pts_time:0.56 dts:46800 dts_time:0.52 duration:0 duration_time:0 stream_index:0
[mpeg @ 0x557e6c7b50] buffer underflow st=0 bufi=1626 size=1684
pts:54000 pts_time:0.6 dts:50400 dts_time:0.56 duration:0 duration_time:0 stream_index:0
[mpeg @ 0x557e6c7b50] buffer underflow st=0 bufi=1974 size=6430
[mpeg @ 0x557e6c7b50] buffer underflow st=0 bufi=4015 size=6430
[mpeg @ 0x557e6c7b50] buffer underflow st=0 bufi=6056 size=6430
pts:57600 pts_time:0.64 dts:54000 dts_time:0.6 duration:0 duration_time:0 stream_index:0
[mpeg @ 0x557e6c7b50] buffer underflow st=0 bufi=1658 size=2745
pts:61200 pts_time:0.68 dts:57600 dts_time:0.64 duration:0 duration_time:0 stream_index:0
[mpeg @ 0x557e6c7b50] buffer underflow st=0 bufi=945 size=1482
pts:64800 pts_time:0.72 dts:61200 dts_time:0.68 duration:0 duration_time:0 stream_index:0
pts:68400 pts_time:0.76 dts:64800 dts_time:0.72 duration:0 duration_time:0 stream_index:0
[mpeg @ 0x557e6c7b50] buffer underflow st=0 bufi=18 size=1636
pts:72000 pts_time:0.8 dts:68400 dts_time:0.76 duration:0 duration_time:0 stream_index:0
[mpeg @ 0x557e6c7b50] buffer underflow st=0 bufi=414 size=3841
[mpeg @ 0x557e6c7b50] buffer underflow st=0 bufi=2455 size=3841
pts:75600 pts_time:0.84 dts:72000 dts_time:0.8 duration:0 duration_time:0 stream_index:0
[mpeg @ 0x557e6c7b50] buffer underflow st=0 bufi=646 size=4519
[mpeg @ 0x557e6c7b50] buffer underflow st=0 bufi=2687 size=4519
pts:79200 pts_time:0.88 dts:75600 dts_time:0.84 duration:0 duration_time:0 stream_index:0
[mpeg @ 0x557e6c7b50] buffer underflow st=0 bufi=200 size=5274
[mpeg @ 0x557e6c7b50] buffer underflow st=0 bufi=2241 size=5274
[mpeg @ 0x557e6c7b50] buffer underflow st=0 bufi=4282 size=5274
pts:82800 pts_time:0.92 dts:79200 dts_time:0.88 duration:0 duration_time:0 stream_index:0
[mpeg @ 0x557e6c7b50] buffer underflow st=0 bufi=1040 size=10094
[mpeg @ 0x557e6c7b50] buffer underflow st=0 bufi=3081 size=10094
[mpeg @ 0x557e6c7b50] buffer underflow st=0 bufi=5122 size=10094
[mpeg @ 0x557e6c7b50] buffer underflow st=0 bufi=7163 size=10094
[mpeg @ 0x557e6c7b50] buffer underflow st=0 bufi=9204 size=10094
pts:86400 pts_time:0.96 dts:82800 dts_time:0.92 duration:0 duration_time:0 stream_index:0
pts:90000 pts_time:1 dts:86400 dts_time:0.96 duration:0 duration_time:0 stream_index:0
[mpeg @ 0x557e6c7b50] buffer underflow st=0 bufi=683 size=1009
pts:93600 pts_time:1.04 dts:90000 dts_time:1 duration:0 duration_time:0 stream_index:0
[mpeg @ 0x557e6c7b50] buffer underflow st=0 bufi=1694 size=2190
pts:97200 pts_time:1.08 dts:93600 dts_time:1.04 duration:0 duration_time:0 stream_index:0
pts:100800 pts_time:1.12 dts:97200 dts_time:1.08 duration:0 duration_time:0 stream_index:0
[mpeg @ 0x557e6c7b50] buffer underflow st=0 bufi=52 size=1460
pts:104400 pts_time:1.16 dts:100800 dts_time:1.12 duration:0 duration_time:0 stream_index:0
[mpeg @ 0x557e6c7b50] buffer underflow st=0 bufi=624 size=4761
[mpeg @ 0x557e6c7b50] buffer underflow st=0 bufi=2665 size=4761
[mpeg @ 0x557e6c7b50] buffer underflow st=0 bufi=4706 size=4761
pts:108000 pts_time:1.2 dts:104400 dts_time:1.16 duration:0 duration_time:0 stream_index:0
pts:111600 pts_time:1.24 dts:108000 dts_time:1.2 duration:0 duration_time:0 stream_index:0
[mpeg @ 0x557e6c7b50] buffer underflow st=0 bufi=238 size=1292
pts:115200 pts_time:1.28 dts:111600 dts_time:1.24 duration:0 duration_time:0 stream_index:0
[mpeg @ 0x557e6c7b50] buffer underflow st=0 bufi=978 size=1421
pts:118800 pts_time:1.32 dts:115200 dts_time:1.28 duration:0 duration_time:0 stream_index:0
[mpeg @ 0x557e6c7b50] buffer underflow st=0 bufi=1589 size=1770
pts:122400 pts_time:1.36 dts:118800 dts_time:1.32 duration:0 duration_time:0 stream_index:0
pts:126000 pts_time:1.4 dts:122400 dts_time:1.36 duration:0 duration_time:0 stream_index:0
[mpeg @ 0x557e6c7b50] buffer underflow st=0 bufi=168 size=13620
[mpeg @ 0x557e6c7b50] buffer underflow st=0 bufi=2209 size=13620
[mpeg @ 0x557e6c7b50] buffer underflow st=0 bufi=4250 size=13620
[mpeg @ 0x557e6c7b50] buffer underflow st=0 bufi=6291 size=13620
[mpeg @ 0x557e6c7b50] buffer underflow st=0 bufi=8332 size=13620
[mpeg @ 0x557e6c7b50] buffer underflow st=0 bufi=10373 size=13620
[mpeg @ 0x557e6c7b50] buffer underflow st=0 bufi=12414 size=13620
pts:129600 pts_time:1.44 dts:126000 dts_time:1.4 duration:0 duration_time:0 stream_index:0
pts:133200 pts_time:1.48 dts:129600 dts_time:1.44 duration:0 duration_time:0 stream_index:0
[mpeg @ 0x557e6c7b50] buffer underflow st=0 bufi=424 size=6582
[mpeg @ 0x557e6c7b50] buffer underflow st=0 bufi=2465 size=6582
[mpeg @ 0x557e6c7b50] buffer underflow st=0 bufi=4506 size=6582
[mpeg @ 0x557e6c7b50] buffer underflow st=0 bufi=6547 size=6582
pts:136800 pts_time:1.52 dts:133200 dts_time:1.48 duration:0 duration_time:0 stream_index:0
[mpeg @ 0x557e6c7b50] buffer underflow st=0 bufi=1997 size=4273
[mpeg @ 0x557e6c7b50] buffer underflow st=0 bufi=4038 size=4273
pts:140400 pts_time:1.56 dts:136800 dts_time:1.52 duration:0 duration_time:0 stream_index:0
pts:144000 pts_time:1.6 dts:140400 dts_time:1.56 duration:0 duration_time:0 stream_index:0
pts:147600 pts_time:1.64 dts:144000 dts_time:1.6 duration:0 duration_time:0 stream_index:0
[mpeg @ 0x557e6c7b50] buffer underflow st=0 bufi=180 size=709
pts:151200 pts_time:1.68 dts:147600 dts_time:1.64 duration:0 duration_time:0 stream_index:0
[mpeg @ 0x557e6c7b50] buffer underflow st=0 bufi=1503 size=2552
pts:154800 pts_time:1.72 dts:151200 dts_time:1.68 duration:0 duration_time:0 stream_index:0
[mpeg @ 0x557e6c7b50] buffer underflow st=0 bufi=983 size=1376
pts:158400 pts_time:1.76 dts:154800 dts_time:1.72 duration:0 duration_time:0 stream_index:0
pts:162000 pts_time:1.8 dts:158400 dts_time:1.76 duration:0 duration_time:0 stream_index:0
[mpeg @ 0x557e6c7b50] buffer underflow st=0 bufi=319 size=638
pts:165600 pts_time:1.84 dts:162000 dts_time:1.8 duration:0 duration_time:0 stream_index:0
[mpeg @ 0x557e6c7b50] buffer underflow st=0 bufi=1713 size=6326
[mpeg @ 0x557e6c7b50] buffer underflow st=0 bufi=3754 size=6326
[mpeg @ 0x557e6c7b50] buffer underflow st=0 bufi=5795 size=6326
pts:169200 pts_time:1.88 dts:165600 dts_time:1.84 duration:0 duration_time:0 stream_index:0
[mpeg @ 0x557e6c7b50] buffer underflow st=0 bufi=1501 size=13346
[mpeg @ 0x557e6c7b50] buffer underflow st=0 bufi=3542 size=13346
[mpeg @ 0x557e6c7b50] buffer underflow st=0 bufi=5583 size=13346
[mpeg @ 0x557e6c7b50] buffer underflow st=0 bufi=7624 size=13346
[mpeg @ 0x557e6c7b50] buffer underflow st=0 bufi=9665 size=13346
[mpeg @ 0x557e6c7b50] buffer underflow st=0 bufi=11706 size=13346
pts:172800 pts_time:1.92 dts:169200 dts_time:1.88 duration:0 duration_time:0 stream_index:0
[mpeg @ 0x557e6c7b50] buffer underflow st=0 bufi=392 size=1459
pts:176400 pts_time:1.96 dts:172800 dts_time:1.92 duration:0 duration_time:0 stream_index:0
pts:180000 pts_time:2 dts:176400 dts_time:1.96 duration:0 duration_time:0 stream_index:0
[mpeg @ 0x557e6c7b50] buffer underflow st=0 bufi=247 size=645
pts:183600 pts_time:2.04 dts:180000 dts_time:2 duration:0 duration_time:0 stream_index:0
pts:187200 pts_time:2.08 dts:183600 dts_time:2.04 duration:0 duration_time:0 stream_index:0
[mpeg @ 0x557e6c7b50] buffer underflow st=0 bufi=768 size=3092
[mpeg @ 0x557e6c7b50] buffer underflow st=0 bufi=2809 size=3092
pts:190800 pts_time:2.12 dts:187200 dts_time:2.08 duration:0 duration_time:0 stream_index:0
pts:194400 pts_time:2.16 dts:190800 dts_time:2.12 duration:0 duration_time:0 stream_index:0
pts:198000 pts_time:2.2 dts:194400 dts_time:2.16 duration:0 duration_time:0 stream_index:0
[mpeg @ 0x557e6c7b50] buffer underflow st=0 bufi=1323 size=7099
[mpeg @ 0x557e6c7b50] buffer underflow st=0 bufi=3364 size=7099
[mpeg @ 0x557e6c7b50] buffer underflow st=0 bufi=5405 size=7099
pts:201600 pts_time:2.24 dts:198000 dts_time:2.2 duration:0 duration_time:0 stream_index:0
[mpeg @ 0x557e6c7b50] buffer underflow st=0 bufi=338 size=5030
[mpeg @ 0x557e6c7b50] buffer underflow st=0 bufi=2379 size=5030
[mpeg @ 0x557e6c7b50] buffer underflow st=0 bufi=4420 size=5030
pts:205200 pts_time:2.28 dts:201600 dts_time:2.24 duration:0 duration_time:0 stream_index:0
pts:208800 pts_time:2.32 dts:205200 dts_time:2.28 duration:0 duration_time:0 stream_index:0
pts:212400 pts_time:2.36 dts:208800 dts_time:2.32 duration:0 duration_time:0 stream_index:0
[mpeg @ 0x557e6c7b50] buffer underflow st=0 bufi=165 size=12508
[mpeg @ 0x557e6c7b50] buffer underflow st=0 bufi=2206 size=12508
[mpeg @ 0x557e6c7b50] buffer underflow st=0 bufi=4247 size=12508
[mpeg @ 0x557e6c7b50] buffer underflow st=0 bufi=6288 size=12508
[mpeg @ 0x557e6c7b50] buffer underflow st=0 bufi=8329 size=12508
[mpeg @ 0x557e6c7b50] buffer underflow st=0 bufi=10370 size=12508
[mpeg @ 0x557e6c7b50] buffer underflow st=0 bufi=12411 size=12508
pts:216000 pts_time:2.4 dts:212400 dts_time:2.36 duration:0 duration_time:0 stream_index:0
pts:219600 pts_time:2.44 dts:216000 dts_time:2.4 duration:0 duration_time:0 stream_index:0
pts:223200 pts_time:2.48 dts:219600 dts_time:2.44 duration:0 duration_time:0 stream_index:0
[mpeg @ 0x557e6c7b50] buffer underflow st=0 bufi=768 size=936
pts:226800 pts_time:2.52 dts:223200 dts_time:2.48 duration:0 duration_time:0 stream_index:0
[mpeg @ 0x557e6c7b50] buffer underflow st=0 bufi=1852 size=3001
pts:230400 pts_time:2.56 dts:226800 dts_time:2.52 duration:0 duration_time:0 stream_index:0
pts:234000 pts_time:2.6 dts:230400 dts_time:2.56 duration:0 duration_time:0 stream_index:0
[mpeg @ 0x557e6c7b50] buffer underflow st=0 bufi=672 size=5888
[mpeg @ 0x557e6c7b50] buffer underflow st=0 bufi=2713 size=5888
[mpeg @ 0x557e6c7b50] buffer underflow st=0 bufi=4754 size=5888
pts:237600 pts_time:2.64 dts:234000 dts_time:2.6 duration:0 duration_time:0 stream_index:0
[mpeg @ 0x557e6c7b50] buffer underflow st=0 bufi=898 size=1485
pts:241200 pts_time:2.68 dts:237600 dts_time:2.64 duration:0 duration_time:0 stream_index:0
pts:244800 pts_time:2.72 dts:241200 dts_time:2.68 duration:0 duration_time:0 stream_index:0
[mpeg @ 0x557e6c7b50] buffer underflow st=0 bufi=986 size=1036
pts:248400 pts_time:2.76 dts:244800 dts_time:2.72 duration:0 duration_time:0 stream_index:0
pts:252000 pts_time:2.8 dts:248400 dts_time:2.76 duration:0 duration_time:0 stream_index:0
pts:255600 pts_time:2.84 dts:252000 dts_time:2.8 duration:0 duration_time:0 stream_index:0
[mpeg @ 0x557e6c7b50] buffer underflow st=0 bufi=221 size=13910
[mpeg @ 0x557e6c7b50] buffer underflow st=0 bufi=2262 size=13910
[mpeg @ 0x557e6c7b50] buffer underflow st=0 bufi=4303 size=13910
[mpeg @ 0x557e6c7b50] buffer underflow st=0 bufi=6344 size=13910
[mpeg @ 0x557e6c7b50] buffer underflow st=0 bufi=8385 size=13910
[mpeg @ 0x557e6c7b50] buffer underflow st=0 bufi=10426 size=13910
[mpeg @ 0x557e6c7b50] buffer underflow st=0 bufi=12467 size=13910
pts:259200 pts_time:2.88 dts:255600 dts_time:2.84 duration:0 duration_time:0 stream_index:0
pts:262800 pts_time:2.92 dts:259200 dts_time:2.88 duration:0 duration_time:0 stream_index:0
[mpeg @ 0x557e6c7b50] buffer underflow st=0 bufi=175 size=1234
pts:266400 pts_time:2.96 dts:262800 dts_time:2.92 duration:0 duration_time:0 stream_index:0
pts:270000 pts_time:3 dts:266400 dts_time:2.96 duration:0 duration_time:0 stream_index:0
[mpeg @ 0x557e6c7b50] buffer underflow st=0 bufi=123 size=5140
[mpeg @ 0x557e6c7b50] buffer underflow st=0 bufi=2164 size=5140
[mpeg @ 0x557e6c7b50] buffer underflow st=0 bufi=4205 size=5140
pts:273600 pts_time:3.04 dts:270000 dts_time:3 duration:0 duration_time:0 stream_index:0
[mpeg @ 0x557e6c7b50] buffer underflow st=0 bufi=1097 size=4614
[mpeg @ 0x557e6c7b50] buffer underflow st=0 bufi=3138 size=4614
pts:277200 pts_time:3.08 dts:273600 dts_time:3.04 duration:0 duration_time:0 stream_index:0
[mpeg @ 0x557e6c7b50] buffer underflow st=0 bufi=556 size=808
pts:280800 pts_time:3.12 dts:277200 dts_time:3.08 duration:0 duration_time:0 stream_index:0
pts:284400 pts_time:3.16 dts:280800 dts_time:3.12 duration:0 duration_time:0 stream_index:0
[mpeg @ 0x557e6c7b50] buffer underflow st=0 bufi=1384 size=1419
pts:288000 pts_time:3.2 dts:284400 dts_time:3.16 duration:0 duration_time:0 stream_index:0
pts:291600 pts_time:3.24 dts:288000 dts_time:3.2 duration:0 duration_time:0 stream_index:0
[mpeg @ 0x557e6c7b50] buffer underflow st=0 bufi=306 size=1350
pts:295200 pts_time:3.28 dts:291600 dts_time:3.24 duration:0 duration_time:0 stream_index:0
pts:298800 pts_time:3.32 dts:295200 dts_time:3.28 duration:0 duration_time:0 stream_index:0
[mpeg @ 0x557e6c7b50] buffer underflow st=0 bufi=94 size=13998
[mpeg @ 0x557e6c7b50] buffer underflow st=0 bufi=2135 size=13998
[mpeg @ 0x557e6c7b50] buffer underflow st=0 bufi=4176 size=13998
[mpeg @ 0x557e6c7b50] buffer underflow st=0 bufi=6217 size=13998
[mpeg @ 0x557e6c7b50] buffer underflow st=0 bufi=8258 size=13998
[mpeg @ 0x557e6c7b50] buffer underflow st=0 bufi=10299 size=13998
[mpeg @ 0x557e6c7b50] buffer underflow st=0 bufi=12340 size=13998
pts:302400 pts_time:3.36 dts:298800 dts_time:3.32 duration:0 duration_time:0 stream_index:0
[mpeg @ 0x557e6c7b50] buffer underflow st=0 bufi=374 size=423
pts:306000 pts_time:3.4 dts:302400 dts_time:3.36 duration:0 duration_time:0 stream_index:0
[mpeg @ 0x557e6c7b50] buffer underflow st=0 bufi=1983 size=2473
pts:309600 pts_time:3.44 dts:306000 dts_time:3.4 duration:0 duration_time:0 stream_index:0
pts:313200 pts_time:3.48 dts:309600 dts_time:3.44 duration:0 duration_time:0 stream_index:0
pts:316800 pts_time:3.52 dts:313200 dts_time:3.48 duration:0 duration_time:0 stream_index:0
[mpeg @ 0x557e6c7b50] buffer underflow st=0 bufi=651 size=661
pts:320400 pts_time:3.56 dts:316800 dts_time:3.52 duration:0 duration_time:0 stream_index:0
[mpeg @ 0x557e6c7b50] buffer underflow st=0 bufi=1570 size=2122
pts:324000 pts_time:3.6 dts:320400 dts_time:3.56 duration:0 duration_time:0 stream_index:0
pts:327600 pts_time:3.64 dts:324000 dts_time:3.6 duration:0 duration_time:0 stream_index:0
[mpeg @ 0x557e6c7b50] buffer underflow st=0 bufi=1359 size=1428
pts:331200 pts_time:3.68 dts:327600 dts_time:3.64 duration:0 duration_time:0 stream_index:0
pts:334800 pts_time:3.72 dts:331200 dts_time:3.68 duration:0 duration_time:0 stream_index:0
pts:338400 pts_time:3.76 dts:334800 dts_time:3.72 duration:0 duration_time:0 stream_index:0
[mpeg @ 0x557e6c7b50] buffer underflow st=0 bufi=420 size=714
pts:342000 pts_time:3.8 dts:338400 dts_time:3.76 duration:0 duration_time:0 stream_index:0
[mpeg @ 0x557e6c7b50] buffer underflow st=0 bufi=1738 size=14048
[mpeg @ 0x557e6c7b50] buffer underflow st=0 bufi=3779 size=14048
[mpeg @ 0x557e6c7b50] buffer underflow st=0 bufi=5820 size=14048
[mpeg @ 0x557e6c7b50] buffer underflow st=0 bufi=7861 size=14048
[mpeg @ 0x557e6c7b50] buffer underflow st=0 bufi=9902 size=14048
[mpeg @ 0x557e6c7b50] buffer underflow st=0 bufi=11943 size=14048
[mpeg @ 0x557e6c7b50] buffer underflow st=0 bufi=13984 size=14048
pts:345600 pts_time:3.84 dts:342000 dts_time:3.8 duration:0 duration_time:0 stream_index:0
[mpeg @ 0x557e6c7b50] buffer underflow st=0 bufi=1968 size=6747
[mpeg @ 0x557e6c7b50] buffer underflow st=0 bufi=4009 size=6747
[mpeg @ 0x557e6c7b50] buffer underflow st=0 bufi=6050 size=6747
pts:349200 pts_time:3.88 dts:345600 dts_time:3.84 duration:0 duration_time:0 stream_index:0
[mpeg @ 0x557e6c7b50] buffer underflow st=0 bufi=1335 size=1583
pts:352800 pts_time:3.92 dts:349200 dts_time:3.88 duration:0 duration_time:0 stream_index:0
pts:356400 pts_time:3.96 dts:352800 dts_time:3.92 duration:0 duration_time:0 stream_index:0
pts:360000 pts_time:4 dts:356400 dts_time:3.96 duration:0 duration_time:0 stream_index:0
[mpeg @ 0x557e6c7b50] buffer underflow st=0 bufi=480 size=29737
[mpeg @ 0x557e6c7b50] buffer underflow st=0 bufi=2521 size=29737
[mpeg @ 0x557e6c7b50] buffer underflow st=0 bufi=4562 size=29737
[mpeg @ 0x557e6c7b50] buffer underflow st=0 bufi=6603 size=29737
[mpeg @ 0x557e6c7b50] buffer underflow st=0 bufi=8644 size=29737
[mpeg @ 0x557e6c7b50] buffer underflow st=0 bufi=10685 size=29737
[mpeg @ 0x557e6c7b50] buffer underflow st=0 bufi=12714 size=29737
[mpeg @ 0x557e6c7b50] buffer underflow st=0 bufi=14755 size=29737
[mpeg @ 0x557e6c7b50] buffer underflow st=0 bufi=16796 size=29737
[mpeg @ 0x557e6c7b50] buffer underflow st=0 bufi=18837 size=29737
[mpeg @ 0x557e6c7b50] buffer underflow st=0 bufi=20878 size=29737
[mpeg @ 0x557e6c7b50] buffer underflow st=0 bufi=22919 size=29737
[mpeg @ 0x557e6c7b50] buffer underflow st=0 bufi=24960 size=29737
[mpeg @ 0x557e6c7b50] buffer underflow st=0 bufi=27001 size=29737
[mpeg @ 0x557e6c7b50] buffer underflow st=0 bufi=29042 size=29737
pts:363600 pts_time:4.04 dts:360000 dts_time:4 duration:0 duration_time:0 stream_index:0
[mpeg @ 0x557e6c7b50] buffer underflow st=0 bufi=1337 size=5152
[mpeg @ 0x557e6c7b50] buffer underflow st=0 bufi=3378 size=5152
pts:367200 pts_time:4.08 dts:363600 dts_time:4.04 duration:0 duration_time:0 stream_index:0
[mpeg @ 0x557e6c7b50] buffer underflow st=0 bufi=258 size=6566
[mpeg @ 0x557e6c7b50] buffer underflow st=0 bufi=2299 size=6566
[mpeg @ 0x557e6c7b50] buffer underflow st=0 bufi=4340 size=6566
[mpeg @ 0x557e6c7b50] buffer underflow st=0 bufi=6381 size=6566
pts:370800 pts_time:4.12 dts:367200 dts_time:4.08 duration:0 duration_time:0 stream_index:0
[mpeg @ 0x557e6c7b50] buffer underflow st=0 bufi=1847 size=4369
[mpeg @ 0x557e6c7b50] buffer underflow st=0 bufi=3888 size=4369
pts:374400 pts_time:4.16 dts:370800 dts_time:4.12 duration:0 duration_time:0 stream_index:0
[mpeg @ 0x557e6c7b50] buffer underflow st=0 bufi=1551 size=4396
[mpeg @ 0x557e6c7b50] buffer underflow st=0 bufi=3592 size=4396
pts:378000 pts_time:4.2 dts:374400 dts_time:4.16 duration:0 duration_time:0 stream_index:0
[mpeg @ 0x557e6c7b50] buffer underflow st=0 bufi=1228 size=4389
[mpeg @ 0x557e6c7b50] buffer underflow st=0 bufi=3269 size=4389
pts:381600 pts_time:4.24 dts:378000 dts_time:4.2 duration:0 duration_time:0 stream_index:0
[mpeg @ 0x557e6c7b50] buffer underflow st=0 bufi=912 size=3741
[mpeg @ 0x557e6c7b50] buffer underflow st=0 bufi=2953 size=3741
pts:385200 pts_time:4.28 dts:381600 dts_time:4.24 duration:0 duration_time:0 stream_index:0
[mpeg @ 0x557e6c7b50] buffer underflow st=0 bufi=1244 size=16728
[mpeg @ 0x557e6c7b50] buffer underflow st=0 bufi=3285 size=16728
[mpeg @ 0x557e6c7b50] buffer underflow st=0 bufi=5326 size=16728
[mpeg @ 0x557e6c7b50] buffer underflow st=0 bufi=7367 size=16728
[mpeg @ 0x557e6c7b50] buffer underflow st=0 bufi=9408 size=16728
[mpeg @ 0x557e6c7b50] buffer underflow st=0 bufi=11449 size=16728
[mpeg @ 0x557e6c7b50] buffer underflow st=0 bufi=13490 size=16728
[mpeg @ 0x557e6c7b50] buffer underflow st=0 bufi=15531 size=16728
pts:388800 pts_time:4.32 dts:385200 dts_time:4.28 duration:0 duration_time:0 stream_index:0
[mpeg @ 0x557e6c7b50] buffer underflow st=0 bufi=835 size=3309
[mpeg @ 0x557e6c7b50] buffer underflow st=0 bufi=2876 size=3309
pts:392400 pts_time:4.36 dts:388800 dts_time:4.32 duration:0 duration_time:0 stream_index:0
[mpeg @ 0x557e6c7b50] buffer underflow st=0 bufi=1599 size=3497
pts:396000 pts_time:4.4 dts:392400 dts_time:4.36 duration:0 duration_time:0 stream_index:0
[mpeg @ 0x557e6c7b50] buffer underflow st=0 bufi=134 size=3281
[mpeg @ 0x557e6c7b50] buffer underflow st=0 bufi=2175 size=3281
pts:399600 pts_time:4.44 dts:396000 dts_time:4.4 duration:0 duration_time:0 stream_index:0
[mpeg @ 0x557e6c7b50] buffer underflow st=0 bufi=926 size=4757
[mpeg @ 0x557e6c7b50] buffer underflow st=0 bufi=2967 size=4757
pts:403200 pts_time:4.48 dts:399600 dts_time:4.44 duration:0 duration_time:0 stream_index:0
[mpeg @ 0x557e6c7b50] buffer underflow st=0 bufi=242 size=3740
[mpeg @ 0x557e6c7b50] buffer underflow st=0 bufi=2283 size=3740
pts:406800 pts_time:4.52 dts:403200 dts_time:4.48 duration:0 duration_time:0 stream_index:0
[mpeg @ 0x557e6c7b50] buffer underflow st=0 bufi=575 size=2549
pts:410400 pts_time:4.56 dts:406800 dts_time:4.52 duration:0 duration_time:0 stream_index:0
[mpeg @ 0x557e6c7b50] buffer underflow st=0 bufi=58 size=4564
[mpeg @ 0x557e6c7b50] buffer underflow st=0 bufi=2099 size=4564
[mpeg @ 0x557e6c7b50] buffer underflow st=0 bufi=4140 size=4564
pts:414000 pts_time:4.6 dts:410400 dts_time:4.56 duration:0 duration_time:0 stream_index:0
[mpeg @ 0x557e6c7b50] buffer underflow st=0 bufi=1608 size=2128
pts:417600 pts_time:4.64 dts:414000 dts_time:4.6 duration:0 duration_time:0 stream_index:0
[mpeg @ 0x557e6c7b50] buffer underflow st=0 bufi=1512 size=3901
[mpeg @ 0x557e6c7b50] buffer underflow st=0 bufi=3553 size=3901
pts:421200 pts_time:4.68 dts:417600 dts_time:4.64 duration:0 duration_time:0 stream_index:0
[mpeg @ 0x557e6c7b50] buffer underflow st=0 bufi=1684 size=2352
pts:424800 pts_time:4.72 dts:421200 dts_time:4.68 duration:0 duration_time:0 stream_index:0
[mpeg @ 0x557e6c7b50] buffer underflow st=0 bufi=1364 size=4528
[mpeg @ 0x557e6c7b50] buffer underflow st=0 bufi=3405 size=4528
pts:428400 pts_time:4.76 dts:424800 dts_time:4.72 duration:0 duration_time:0 stream_index:0
[mpeg @ 0x557e6c7b50] buffer underflow st=0 bufi=909 size=11545
[mpeg @ 0x557e6c7b50] buffer underflow st=0 bufi=2950 size=11545
[mpeg @ 0x557e6c7b50] buffer underflow st=0 bufi=4979 size=11545
[mpeg @ 0x557e6c7b50] buffer underflow st=0 bufi=7020 size=11545
[mpeg @ 0x557e6c7b50] buffer underflow st=0 bufi=9061 size=11545
[mpeg @ 0x557e6c7b50] buffer underflow st=0 bufi=11102 size=11545
pts:432000 pts_time:4.8 dts:428400 dts_time:4.76 duration:0 duration_time:0 stream_index:0
[mpeg @ 0x557e6c7b50] buffer underflow st=0 bufi=1589 size=2174
pts:435600 pts_time:4.84 dts:432000 dts_time:4.8 duration:0 duration_time:0 stream_index:0
[mpeg @ 0x557e6c7b50] buffer underflow st=0 bufi=1447 size=3841
[mpeg @ 0x557e6c7b50] buffer underflow st=0 bufi=3488 size=3841
pts:439200 pts_time:4.88 dts:435600 dts_time:4.84 duration:0 duration_time:0 stream_index:0
[mpeg @ 0x557e6c7b50] buffer underflow st=0 bufi=1679 size=2146
pts:442800 pts_time:4.92 dts:439200 dts_time:4.88 duration:0 duration_time:0 stream_index:0
[mpeg @ 0x557e6c7b50] buffer underflow st=0 bufi=1565 size=3480
pts:446400 pts_time:4.96 dts:442800 dts_time:4.92 duration:0 duration_time:0 stream_index:0
[mpeg @ 0x557e6c7b50] buffer underflow st=0 bufi=117 size=3693
[mpeg @ 0x557e6c7b50] buffer underflow st=0 bufi=2158 size=3693
pts:450000 pts_time:5 dts:446400 dts_time:4.96 duration:0 duration_time:0 stream_index:0
[mpeg @ 0x557e6c7b50] buffer underflow st=0 bufi=497 size=2184
pts:453600 pts_time:5.04 dts:450000 dts_time:5 duration:0 duration_time:0 stream_index:0
[mpeg @ 0x557e6c7b50] buffer underflow st=0 bufi=345 size=3651
[mpeg @ 0x557e6c7b50] buffer underflow st=0 bufi=2386 size=3651
pts:457200 pts_time:5.08 dts:453600 dts_time:5.04 duration:0 duration_time:0 stream_index:0
[mpeg @ 0x557e6c7b50] buffer underflow st=0 bufi=767 size=1846
pts:460800 pts_time:5.12 dts:457200 dts_time:5.08 duration:0 duration_time:0 stream_index:0
[mpeg @ 0x557e6c7b50] buffer underflow st=0 bufi=953 size=2804
pts:464400 pts_time:5.16 dts:460800 dts_time:5.12 duration:0 duration_time:0 stream_index:0
[mpeg @ 0x557e6c7b50] buffer underflow st=0 bufi=181 size=4991
[mpeg @ 0x557e6c7b50] buffer underflow st=0 bufi=2222 size=4991
[mpeg @ 0x557e6c7b50] buffer underflow st=0 bufi=4263 size=4991
pts:468000 pts_time:5.2 dts:464400 dts_time:5.16 duration:0 duration_time:0 stream_index:0
[mpeg @ 0x557e6c7b50] buffer underflow st=0 bufi=1304 size=3761
[mpeg @ 0x557e6c7b50] buffer underflow st=0 bufi=3345 size=3761
pts:471600 pts_time:5.24 dts:468000 dts_time:5.2 duration:0 duration_time:0 stream_index:0
[mpeg @ 0x557e6c7b50] buffer underflow st=0 bufi=1616 size=12768
[mpeg @ 0x557e6c7b50] buffer underflow st=0 bufi=3657 size=12768
[mpeg @ 0x557e6c7b50] buffer underflow st=0 bufi=5698 size=12768
[mpeg @ 0x557e6c7b50] buffer underflow st=0 bufi=7739 size=12768
[mpeg @ 0x557e6c7b50] buffer underflow st=0 bufi=9780 size=12768
[mpeg @ 0x557e6c7b50] buffer underflow st=0 bufi=11821 size=12768
pts:475200 pts_time:5.28 dts:471600 dts_time:5.24 duration:0 duration_time:0 stream_index:0
[mpeg @ 0x557e6c7b50] buffer underflow st=0 bufi=1085 size=4492
[mpeg @ 0x557e6c7b50] buffer underflow st=0 bufi=3126 size=4492
pts:478800 pts_time:5.32 dts:475200 dts_time:5.28 duration:0 duration_time:0 stream_index:0
[mpeg @ 0x557e6c7b50] buffer underflow st=0 bufi=666 size=2617
pts:482400 pts_time:5.36 dts:478800 dts_time:5.32 duration:0 duration_time:0 stream_index:0
[mpeg @ 0x557e6c7b50] buffer underflow st=0 bufi=81 size=4108
[mpeg @ 0x557e6c7b50] buffer underflow st=0 bufi=2122 size=4108
pts:486000 pts_time:5.4 dts:482400 dts_time:5.36 duration:0 duration_time:0 stream_index:0
[mpeg @ 0x557e6c7b50] buffer underflow st=0 bufi=46 size=1930
pts:489600 pts_time:5.44 dts:486000 dts_time:5.4 duration:0 duration_time:0 stream_index:0
[mpeg @ 0x557e6c7b50] buffer underflow st=0 bufi=148 size=2593
[mpeg @ 0x557e6c7b50] buffer underflow st=0 bufi=2189 size=2593
pts:493200 pts_time:5.48 dts:489600 dts_time:5.44 duration:0 duration_time:0 stream_index:0
[mpeg @ 0x557e6c7b50] buffer underflow st=0 bufi=1628 size=4025
[mpeg @ 0x557e6c7b50] buffer underflow st=0 bufi=3669 size=4025
pts:496800 pts_time:5.52 dts:493200 dts_time:5.48 duration:0 duration_time:0 stream_index:0
[mpeg @ 0x557e6c7b50] buffer underflow st=0 bufi=1676 size=2512
pts:500400 pts_time:5.56 dts:496800 dts_time:5.52 duration:0 duration_time:0 stream_index:0
[mpeg @ 0x557e6c7b50] buffer underflow st=0 bufi=1196 size=3566
[mpeg @ 0x557e6c7b50] buffer underflow st=0 bufi=3237 size=3566
pts:504000 pts_time:5.6 dts:500400 dts_time:5.56 duration:0 duration_time:0 stream_index:0
[mpeg @ 0x557e6c7b50] buffer underflow st=0 bufi=1703 size=2702
pts:507600 pts_time:5.64 dts:504000 dts_time:5.6 duration:0 duration_time:0 stream_index:0
[mpeg @ 0x557e6c7b50] buffer underflow st=0 bufi=1033 size=2041
pts:511200 pts_time:5.68 dts:507600 dts_time:5.64 duration:0 duration_time:0 stream_index:0
[mpeg @ 0x557e6c7b50] buffer underflow st=0 bufi=1024 size=3189
[mpeg @ 0x557e6c7b50] buffer underflow st=0 bufi=3065 size=3189
pts:514800 pts_time:5.72 dts:511200 dts_time:5.68 duration:0 duration_time:0 stream_index:0
[mpeg @ 0x557e6c7b50] buffer underflow st=0 bufi=1908 size=9721
[mpeg @ 0x557e6c7b50] buffer underflow st=0 bufi=3949 size=9721
[mpeg @ 0x557e6c7b50] buffer underflow st=0 bufi=5990 size=9721
[mpeg @ 0x557e6c7b50] buffer underflow st=0 bufi=8031 size=9721
pts:518400 pts_time:5.76 dts:514800 dts_time:5.72 duration:0 duration_time:0 stream_index:0
[mpeg @ 0x557e6c7b50] buffer underflow st=0 bufi=342 size=1929
pts:522000 pts_time:5.8 dts:518400 dts_time:5.76 duration:0 duration_time:0 stream_index:0
[mpeg @ 0x557e6c7b50] buffer underflow st=0 bufi=445 size=2216
pts:525600 pts_time:5.84 dts:522000 dts_time:5.8 duration:0 duration_time:0 stream_index:0
[mpeg @ 0x557e6c7b50] buffer underflow st=0 bufi=261 size=3312
[mpeg @ 0x557e6c7b50] buffer underflow st=0 bufi=2302 size=3312
pts:529200 pts_time:5.88 dts:525600 dts_time:5.84 duration:0 duration_time:0 stream_index:0
[mpeg @ 0x557e6c7b50] buffer underflow st=0 bufi=995 size=1770
pts:532800 pts_time:5.92 dts:529200 dts_time:5.88 duration:0 duration_time:0 stream_index:0
[mpeg @ 0x557e6c7b50] buffer underflow st=0 bufi=1257 size=2279
pts:536400 pts_time:5.96 dts:532800 dts_time:5.92 duration:0 duration_time:0 stream_index:0
[mpeg @ 0x557e6c7b50] buffer underflow st=0 bufi=1010 size=3264
[mpeg @ 0x557e6c7b50] buffer underflow st=0 bufi=3051 size=3264
pts:540000 pts_time:6 dts:536400 dts_time:5.96 duration:0 duration_time:0 stream_index:0
[mpeg @ 0x557e6c7b50] buffer underflow st=0 bufi=1819 size=3620
pts:543600 pts_time:6.04 dts:540000 dts_time:6 duration:0 duration_time:0 stream_index:0
[mpeg @ 0x557e6c7b50] buffer underflow st=0 bufi=231 size=1666
pts:547200 pts_time:6.08 dts:543600 dts_time:6.04 duration:0 duration_time:0 stream_index:0
[mpeg @ 0x557e6c7b50] buffer underflow st=0 bufi=597 size=2201
pts:550800 pts_time:6.12 dts:547200 dts_time:6.08 duration:0 duration_time:0 stream_index:0
[mpeg @ 0x557e6c7b50] buffer underflow st=0 bufi=428 size=2826
[mpeg @ 0x557e6c7b50] buffer underflow st=0 bufi=2469 size=2826
pts:554400 pts_time:6.16 dts:550800 dts_time:6.12 duration:0 duration_time:0 stream_index:0
[mpeg @ 0x557e6c7b50] buffer underflow st=0 bufi=1675 size=1948
pts:558000 pts_time:6.2 dts:554400 dts_time:6.16 duration:0 duration_time:0 stream_index:0
[mpeg @ 0x557e6c7b50] buffer underflow st=0 bufi=1759 size=11041
[mpeg @ 0x557e6c7b50] buffer underflow st=0 bufi=3800 size=11041
[mpeg @ 0x557e6c7b50] buffer underflow st=0 bufi=5841 size=11041
[mpeg @ 0x557e6c7b50] buffer underflow st=0 bufi=7882 size=11041
[mpeg @ 0x557e6c7b50] buffer underflow st=0 bufi=9923 size=11041
pts:561600 pts_time:6.24 dts:558000 dts_time:6.2 duration:0 duration_time:0 stream_index:0
[mpeg @ 0x557e6c7b50] buffer underflow st=0 bufi=914 size=2493
pts:565200 pts_time:6.28 dts:561600 dts_time:6.24 duration:0 duration_time:0 stream_index:0
[mpeg @ 0x557e6c7b50] buffer underflow st=0 bufi=453 size=2247
pts:568800 pts_time:6.32 dts:565200 dts_time:6.28 duration:0 duration_time:0 stream_index:0
[mpeg @ 0x557e6c7b50] buffer underflow st=0 bufi=238 size=2933
[mpeg @ 0x557e6c7b50] buffer underflow st=0 bufi=2279 size=2933
pts:572400 pts_time:6.36 dts:568800 dts_time:6.32 duration:0 duration_time:0 stream_index:0
[mpeg @ 0x557e6c7b50] buffer underflow st=0 bufi=1378 size=1554
pts:576000 pts_time:6.4 dts:572400 dts_time:6.36 duration:0 duration_time:0 stream_index:0
pts:579600 pts_time:6.44 dts:576000 dts_time:6.4 duration:0 duration_time:0 stream_index:0
[mpeg @ 0x557e6c7b50] buffer underflow st=0 bufi=65 size=3080
[mpeg @ 0x557e6c7b50] buffer underflow st=0 bufi=2106 size=3080
pts:583200 pts_time:6.48 dts:579600 dts_time:6.44 duration:0 duration_time:0 stream_index:0
[mpeg @ 0x557e6c7b50] buffer underflow st=0 bufi=1058 size=3514
[mpeg @ 0x557e6c7b50] buffer underflow st=0 bufi=3099 size=3514
pts:586800 pts_time:6.52 dts:583200 dts_time:6.48 duration:0 duration_time:0 stream_index:0
pts:590400 pts_time:6.56 dts:586800 dts_time:6.52 duration:0 duration_time:0 stream_index:0
[mpeg @ 0x557e6c7b50] buffer underflow st=0 bufi=16 size=1995
pts:594000 pts_time:6.6 dts:590400 dts_time:6.56 duration:0 duration_time:0 stream_index:0
[mpeg @ 0x557e6c7b50] buffer underflow st=0 bufi=53 size=1972
pts:597600 pts_time:6.64 dts:594000 dts_time:6.6 duration:0 duration_time:0 stream_index:0
[mpeg @ 0x557e6c7b50] buffer underflow st=0 bufi=113 size=2670
[mpeg @ 0x557e6c7b50] buffer underflow st=0 bufi=2154 size=2670
pts:601200 pts_time:6.68 dts:597600 dts_time:6.64 duration:0 duration_time:0 stream_index:0
[mpeg @ 0x557e6c7b50] buffer underflow st=0 bufi=1516 size=9365
[mpeg @ 0x557e6c7b50] buffer underflow st=0 bufi=3557 size=9365
[mpeg @ 0x557e6c7b50] buffer underflow st=0 bufi=5598 size=9365
[mpeg @ 0x557e6c7b50] buffer underflow st=0 bufi=7639 size=9365
pts:604800 pts_time:6.72 dts:601200 dts_time:6.68 duration:0 duration_time:0 stream_index:0
[mpeg @ 0x557e6c7b50] buffer underflow st=0 bufi=306 size=1693
pts:608400 pts_time:6.76 dts:604800 dts_time:6.72 duration:0 duration_time:0 stream_index:0
[mpeg @ 0x557e6c7b50] buffer underflow st=0 bufi=645 size=2454
pts:612000 pts_time:6.8 dts:608400 dts_time:6.76 duration:0 duration_time:0 stream_index:0
[mpeg @ 0x557e6c7b50] buffer underflow st=0 bufi=223 size=2745
[mpeg @ 0x557e6c7b50] buffer underflow st=0 bufi=2264 size=2745
pts:615600 pts_time:6.84 dts:612000 dts_time:6.8 duration:0 duration_time:0 stream_index:0
pts:619200 pts_time:6.88 dts:615600 dts_time:6.84 duration:0 duration_time:0 stream_index:0
[mpeg @ 0x557e6c7b50] buffer underflow st=0 bufi=12 size=1973
pts:622800 pts_time:6.92 dts:619200 dts_time:6.88 duration:0 duration_time:0 stream_index:0
[mpeg @ 0x557e6c7b50] buffer underflow st=0 bufi=71 size=2689
[mpeg @ 0x557e6c7b50] buffer underflow st=0 bufi=2112 size=2689
pts:626400 pts_time:6.96 dts:622800 dts_time:6.92 duration:0 duration_time:0 stream_index:0
[mpeg @ 0x557e6c7b50] buffer underflow st=0 bufi=1455 size=2712
pts:630000 pts_time:7 dts:626400 dts_time:6.96 duration:0 duration_time:0 stream_index:0
[mpeg @ 0x557e6c7b50] buffer underflow st=0 bufi=775 size=1494
pts:633600 pts_time:7.04 dts:630000 dts_time:7 duration:0 duration_time:0 stream_index:0
[mpeg @ 0x557e6c7b50] buffer underflow st=0 bufi=1313 size=2111
pts:637200 pts_time:7.08 dts:633600 dts_time:7.04 duration:0 duration_time:0 stream_index:0
[mpeg @ 0x557e6c7b50] buffer underflow st=0 bufi=1234 size=2704
pts:640800 pts_time:7.12 dts:637200 dts_time:7.08 duration:0 duration_time:0 stream_index:0
[mpeg @ 0x557e6c7b50] buffer underflow st=0 bufi=562 size=1740
pts:644400 pts_time:7.16 dts:640800 dts_time:7.12 duration:0 duration_time:0 stream_index:0
[mpeg @ 0x557e6c7b50] buffer underflow st=0 bufi=854 size=10565
[mpeg @ 0x557e6c7b50] buffer underflow st=0 bufi=2895 size=10565
[mpeg @ 0x557e6c7b50] buffer underflow st=0 bufi=4936 size=10565
[mpeg @ 0x557e6c7b50] buffer underflow st=0 bufi=6977 size=10565
[mpeg @ 0x557e6c7b50] buffer underflow st=0 bufi=9018 size=10565
pts:648000 pts_time:7.2 dts:644400 dts_time:7.16 duration:0 duration_time:0 stream_index:0
[mpeg @ 0x557e6c7b50] buffer underflow st=0 bufi=485 size=2924
[mpeg @ 0x557e6c7b50] buffer underflow st=0 bufi=2526 size=2924
pts:651600 pts_time:7.24 dts:648000 dts_time:7.2 duration:0 duration_time:0 stream_index:0
[mpeg @ 0x557e6c7b50] buffer underflow st=0 bufi=1634 size=2502
pts:655200 pts_time:7.28 dts:651600 dts_time:7.24 duration:0 duration_time:0 stream_index:0
[mpeg @ 0x557e6c7b50] buffer underflow st=0 bufi=1152 size=3301
[mpeg @ 0x557e6c7b50] buffer underflow st=0 bufi=3193 size=3301
pts:658800 pts_time:7.32 dts:655200 dts_time:7.28 duration:0 duration_time:0 stream_index:0
pts:662400 pts_time:7.36 dts:658800 dts_time:7.32 duration:0 duration_time:0 stream_index:0
[mpeg @ 0x557e6c7b50] buffer underflow st=0 bufi=160 size=2015
pts:666000 pts_time:7.4 dts:662400 dts_time:7.36 duration:0 duration_time:0 stream_index:0
[mpeg @ 0x557e6c7b50] buffer underflow st=0 bufi=177 size=3379
[mpeg @ 0x557e6c7b50] buffer underflow st=0 bufi=2218 size=3379
pts:669600 pts_time:7.44 dts:666000 dts_time:7.4 duration:0 duration_time:0 stream_index:0
[mpeg @ 0x557e6c7b50] buffer underflow st=0 bufi=871 size=2993
[mpeg @ 0x557e6c7b50] buffer underflow st=0 bufi=2912 size=2993
pts:673200 pts_time:7.48 dts:669600 dts_time:7.44 duration:0 duration_time:0 stream_index:0
[mpeg @ 0x557e6c7b50] buffer underflow st=0 bufi=1951 size=2095
pts:676800 pts_time:7.52 dts:673200 dts_time:7.48 duration:0 duration_time:0 stream_index:0
[mpeg @ 0x557e6c7b50] buffer underflow st=0 bufi=1888 size=2714
pts:680400 pts_time:7.56 dts:676800 dts_time:7.52 duration:0 duration_time:0 stream_index:0
[mpeg @ 0x557e6c7b50] buffer underflow st=0 bufi=1206 size=2757
pts:684000 pts_time:7.6 dts:680400 dts_time:7.56 duration:0 duration_time:0 stream_index:0
[mpeg @ 0x557e6c7b50] buffer underflow st=0 bufi=481 size=2611
[mpeg @ 0x557e6c7b50] buffer underflow st=0 bufi=2522 size=2611
pts:687600 pts_time:7.64 dts:684000 dts_time:7.6 duration:0 duration_time:0 stream_index:0
[mpeg @ 0x557e6c7b50] buffer underflow st=0 bufi=1943 size=9231
[mpeg @ 0x557e6c7b50] buffer underflow st=0 bufi=3984 size=9231
[mpeg @ 0x557e6c7b50] buffer underflow st=0 bufi=6025 size=9231
[mpeg @ 0x557e6c7b50] buffer underflow st=0 bufi=8066 size=9231
pts:691200 pts_time:7.68 dts:687600 dts_time:7.64 duration:0 duration_time:0 stream_index:0
[mpeg @ 0x557e6c7b50] buffer underflow st=0 bufi=867 size=1256
pts:694800 pts_time:7.72 dts:691200 dts_time:7.68 duration:0 duration_time:0 stream_index:0
pts:698400 pts_time:7.76 dts:694800 dts_time:7.72 duration:0 duration_time:0 stream_index:0
[mpeg @ 0x557e6c7b50] buffer underflow st=0 bufi=97 size=2748
[mpeg @ 0x557e6c7b50] buffer underflow st=0 bufi=2138 size=2748
pts:702000 pts_time:7.8 dts:698400 dts_time:7.76 duration:0 duration_time:0 stream_index:0
pts:705600 pts_time:7.84 dts:702000 dts_time:7.8 duration:0 duration_time:0 stream_index:0
[mpeg @ 0x557e6c7b50] buffer underflow st=0 bufi=67 size=1519
pts:709200 pts_time:7.88 dts:705600 dts_time:7.84 duration:0 duration_time:0 stream_index:0
[mpeg @ 0x557e6c7b50] buffer underflow st=0 bufi=580 size=2458
pts:712800 pts_time:7.92 dts:709200 dts_time:7.88 duration:0 duration_time:0 stream_index:0
[mpeg @ 0x557e6c7b50] buffer underflow st=0 bufi=154 size=2321
[mpeg @ 0x557e6c7b50] buffer underflow st=0 bufi=2195 size=2321
pts:716400 pts_time:7.96 dts:712800 dts_time:7.92 duration:0 duration_time:0 stream_index:0
pts:720000 pts_time:8 dts:716400 dts_time:7.96 duration:0 duration_time:0 stream_index:0
[mpeg @ 0x557e6c7b50] buffer underflow st=0 bufi=583 size=2267
pts:723600 pts_time:8.04 dts:720000 dts_time:8 duration:0 duration_time:0 stream_index:0
[mpeg @ 0x557e6c7b50] buffer underflow st=0 bufi=348 size=2690
[mpeg @ 0x557e6c7b50] buffer underflow st=0 bufi=2389 size=2690
pts:727200 pts_time:8.08 dts:723600 dts_time:8.04 duration:0 duration_time:0 stream_index:0
[mpeg @ 0x557e6c7b50] buffer underflow st=0 bufi=1731 size=2006
pts:730800 pts_time:8.12 dts:727200 dts_time:8.08 duration:0 duration_time:0 stream_index:0
[mpeg @ 0x557e6c7b50] buffer underflow st=0 bufi=1757 size=10277
[mpeg @ 0x557e6c7b50] buffer underflow st=0 bufi=3798 size=10277
[mpeg @ 0x557e6c7b50] buffer underflow st=0 bufi=5839 size=10277
[mpeg @ 0x557e6c7b50] buffer underflow st=0 bufi=7880 size=10277
[mpeg @ 0x557e6c7b50] buffer underflow st=0 bufi=9921 size=10277
pts:734400 pts_time:8.16 dts:730800 dts_time:8.12 duration:0 duration_time:0 stream_index:0
[mpeg @ 0x557e6c7b50] buffer underflow st=0 bufi=1676 size=2360
pts:738000 pts_time:8.2 dts:734400 dts_time:8.16 duration:0 duration_time:0 stream_index:0
[mpeg @ 0x557e6c7b50] buffer underflow st=0 bufi=1348 size=2210
pts:741600 pts_time:8.24 dts:738000 dts_time:8.2 duration:0 duration_time:0 stream_index:0
[mpeg @ 0x557e6c7b50] buffer underflow st=0 bufi=1170 size=2848
pts:745200 pts_time:8.28 dts:741600 dts_time:8.24 duration:0 duration_time:0 stream_index:0
[mpeg @ 0x557e6c7b50] buffer underflow st=0 bufi=354 size=1608
pts:748800 pts_time:8.32 dts:745200 dts_time:8.28 duration:0 duration_time:0 stream_index:0
[mpeg @ 0x557e6c7b50] buffer underflow st=0 bufi=778 size=1777
pts:752400 pts_time:8.36 dts:748800 dts_time:8.32 duration:0 duration_time:0 stream_index:0
[mpeg @ 0x557e6c7b50] buffer underflow st=0 bufi=1033 size=2992
pts:756000 pts_time:8.4 dts:752400 dts_time:8.36 duration:0 duration_time:0 stream_index:0
[mpeg @ 0x557e6c7b50] buffer underflow st=0 bufi=73 size=2078
pts:759600 pts_time:8.44 dts:756000 dts_time:8.4 duration:0 duration_time:0 stream_index:0
[mpeg @ 0x557e6c7b50] buffer underflow st=0 bufi=27 size=1669
pts:763200 pts_time:8.48 dts:759600 dts_time:8.44 duration:0 duration_time:0 stream_index:0
[mpeg @ 0x557e6c7b50] buffer underflow st=0 bufi=390 size=2395
pts:766800 pts_time:8.52 dts:763200 dts_time:8.48 duration:0 duration_time:0 stream_index:0
[mpeg @ 0x557e6c7b50] buffer underflow st=0 bufi=27 size=1812
pts:770400 pts_time:8.56 dts:766800 dts_time:8.52 duration:0 duration_time:0 stream_index:0
[mpeg @ 0x557e6c7b50] buffer underflow st=0 bufi=247 size=2087
pts:774000 pts_time:8.6 dts:770400 dts_time:8.56 duration:0 duration_time:0 stream_index:0
[mpeg @ 0x557e6c7b50] buffer underflow st=0 bufi=192 size=9212
[mpeg @ 0x557e6c7b50] buffer underflow st=0 bufi=2233 size=9212
[mpeg @ 0x557e6c7b50] buffer underflow st=0 bufi=4274 size=9212
[mpeg @ 0x557e6c7b50] buffer underflow st=0 bufi=6315 size=9212
[mpeg @ 0x557e6c7b50] buffer underflow st=0 bufi=8356 size=9212
pts:777600 pts_time:8.64 dts:774000 dts_time:8.6 duration:0 duration_time:0 stream_index:0
[mpeg @ 0x557e6c7b50] buffer underflow st=0 bufi=1176 size=1670
pts:781200 pts_time:8.68 dts:777600 dts_time:8.64 duration:0 duration_time:0 stream_index:0
[mpeg @ 0x557e6c7b50] buffer underflow st=0 bufi=1538 size=2010
pts:784800 pts_time:8.72 dts:781200 dts_time:8.68 duration:0 duration_time:0 stream_index:0
[mpeg @ 0x557e6c7b50] buffer underflow st=0 bufi=1560 size=3155
pts:788400 pts_time:8.76 dts:784800 dts_time:8.72 duration:0 duration_time:0 stream_index:0
[mpeg @ 0x557e6c7b50] buffer underflow st=0 bufi=437 size=1506
pts:792000 pts_time:8.8 dts:788400 dts_time:8.76 duration:0 duration_time:0 stream_index:0
[mpeg @ 0x557e6c7b50] buffer underflow st=0 bufi=951 size=2012
pts:795600 pts_time:8.84 dts:792000 dts_time:8.8 duration:0 duration_time:0 stream_index:0
[mpeg @ 0x557e6c7b50] buffer underflow st=0 bufi=971 size=2738
pts:799200 pts_time:8.88 dts:795600 dts_time:8.84 duration:0 duration_time:0 stream_index:0
[mpeg @ 0x557e6c7b50] buffer underflow st=0 bufi=265 size=2739
[mpeg @ 0x557e6c7b50] buffer underflow st=0 bufi=2306 size=2739
pts:802800 pts_time:8.92 dts:799200 dts_time:8.88 duration:0 duration_time:0 stream_index:0
pts:806400 pts_time:8.96 dts:802800 dts_time:8.92 duration:0 duration_time:0 stream_index:0
[mpeg @ 0x557e6c7b50] buffer underflow st=0 bufi=23 size=2004
pts:810000 pts_time:9 dts:806400 dts_time:8.96 duration:0 duration_time:0 stream_index:0
[mpeg @ 0x557e6c7b50] buffer underflow st=0 bufi=51 size=2699
[mpeg @ 0x557e6c7b50] buffer underflow st=0 bufi=2092 size=2699
pts:813600 pts_time:9.04 dts:810000 dts_time:9 duration:0 duration_time:0 stream_index:0
[mpeg @ 0x557e6c7b50] buffer underflow st=0 bufi=1425 size=1683
pts:817200 pts_time:9.08 dts:813600 dts_time:9.04 duration:0 duration_time:0 stream_index:0
[mpeg @ 0x557e6c7b50] buffer underflow st=0 bufi=1774 size=10190
[mpeg @ 0x557e6c7b50] buffer underflow st=0 bufi=3815 size=10190
[mpeg @ 0x557e6c7b50] buffer underflow st=0 bufi=5856 size=10190
[mpeg @ 0x557e6c7b50] buffer underflow st=0 bufi=7897 size=10190
[mpeg @ 0x557e6c7b50] buffer underflow st=0 bufi=9938 size=10190
pts:820800 pts_time:9.12 dts:817200 dts_time:9.08 duration:0 duration_time:0 stream_index:0
[mpeg @ 0x557e6c7b50] buffer underflow st=0 bufi=1780 size=2374
pts:824400 pts_time:9.16 dts:820800 dts_time:9.12 duration:0 duration_time:0 stream_index:0
[mpeg @ 0x557e6c7b50] buffer underflow st=0 bufi=1438 size=2210
pts:828000 pts_time:9.2 dts:824400 dts_time:9.16 duration:0 duration_time:0 stream_index:0
[mpeg @ 0x557e6c7b50] buffer underflow st=0 bufi=1260 size=3191
pts:831600 pts_time:9.24 dts:828000 dts_time:9.2 duration:0 duration_time:0 stream_index:0
[mpeg @ 0x557e6c7b50] buffer underflow st=0 bufi=101 size=1674
pts:835200 pts_time:9.28 dts:831600 dts_time:9.24 duration:0 duration_time:0 stream_index:0
[mpeg @ 0x557e6c7b50] buffer underflow st=0 bufi=459 size=2060
pts:838800 pts_time:9.32 dts:835200 dts_time:9.28 duration:0 duration_time:0 stream_index:0
[mpeg @ 0x557e6c7b50] buffer underflow st=0 bufi=431 size=3537
[mpeg @ 0x557e6c7b50] buffer underflow st=0 bufi=2472 size=3537
pts:842400 pts_time:9.36 dts:838800 dts_time:9.32 duration:0 duration_time:0 stream_index:0
[mpeg @ 0x557e6c7b50] buffer underflow st=0 bufi=967 size=2912
pts:846000 pts_time:9.4 dts:842400 dts_time:9.36 duration:0 duration_time:0 stream_index:0
[mpeg @ 0x557e6c7b50] buffer underflow st=0 bufi=87 size=2237
[mpeg @ 0x557e6c7b50] buffer underflow st=0 bufi=2128 size=2237
pts:849600 pts_time:9.44 dts:846000 dts_time:9.4 duration:0 duration_time:0 stream_index:0
[mpeg @ 0x557e6c7b50] buffer underflow st=0 bufi=1923 size=2773
pts:853200 pts_time:9.48 dts:849600 dts_time:9.44 duration:0 duration_time:0 stream_index:0
[mpeg @ 0x557e6c7b50] buffer underflow st=0 bufi=1182 size=2786
pts:856800 pts_time:9.52 dts:853200 dts_time:9.48 duration:0 duration_time:0 stream_index:0
[mpeg @ 0x557e6c7b50] buffer underflow st=0 bufi=428 size=2497
[mpeg @ 0x557e6c7b50] buffer underflow st=0 bufi=2469 size=2497
pts:860400 pts_time:9.56 dts:856800 dts_time:9.52 duration:0 duration_time:0 stream_index:0
[mpeg @ 0x557e6c7b50] buffer underflow st=0 bufi=2004 size=9210
[mpeg @ 0x557e6c7b50] buffer underflow st=0 bufi=4045 size=9210
[mpeg @ 0x557e6c7b50] buffer underflow st=0 bufi=6086 size=9210
[mpeg @ 0x557e6c7b50] buffer underflow st=0 bufi=8127 size=9210
pts:864000 pts_time:9.6 dts:860400 dts_time:9.56 duration:0 duration_time:0 stream_index:0
[mpeg @ 0x557e6c7b50] buffer underflow st=0 bufi=949 size=1985
pts:867600 pts_time:9.64 dts:864000 dts_time:9.6 duration:0 duration_time:0 stream_index:0
[mpeg @ 0x557e6c7b50] buffer underflow st=0 bufi=996 size=2557
pts:871200 pts_time:9.68 dts:867600 dts_time:9.64 duration:0 duration_time:0 stream_index:0
[mpeg @ 0x557e6c7b50] buffer underflow st=0 bufi=471 size=3428
[mpeg @ 0x557e6c7b50] buffer underflow st=0 bufi=2512 size=3428
pts:874800 pts_time:9.72 dts:871200 dts_time:9.68 duration:0 duration_time:0 stream_index:0
[mpeg @ 0x557e6c7b50] buffer underflow st=0 bufi=1116 size=1590
pts:878400 pts_time:9.76 dts:874800 dts_time:9.72 duration:0 duration_time:0 stream_index:0
[mpeg @ 0x557e6c7b50] buffer underflow st=0 bufi=1558 size=1921
pts:882000 pts_time:9.8 dts:878400 dts_time:9.76 duration:0 duration_time:0 stream_index:0
[mpeg @ 0x557e6c7b50] buffer underflow st=0 bufi=1669 size=2857
pts:885600 pts_time:9.84 dts:882000 dts_time:9.8 duration:0 duration_time:0 stream_index:0
[mpeg @ 0x557e6c7b50] buffer underflow st=0 bufi=844 size=2736
pts:889200 pts_time:9.88 dts:885600 dts_time:9.84 duration:0 duration_time:0 stream_index:0
[mpeg @ 0x557e6c7b50] buffer underflow st=0 bufi=140 size=1505
pts:892800 pts_time:9.92 dts:889200 dts_time:9.88 duration:0 duration_time:0 stream_index:0
[mpeg @ 0x557e6c7b50] buffer underflow st=0 bufi=667 size=1788
[mpeg @ 0x557e6c7b50] buffer underflow st=0 bufi=911 size=2168
pts:896400 pts_time:9.96 dts:892800 dts_time:9.92 duration:0 duration_time:0 stream_index:0
pts:900000 pts_time:10 dts:896400 dts_time:9.96 duration:0 duration_time:0 stream_index:0
